<svg xmlns="http://www.w3.org/2000/svg" xmlns:xlink="http://www.w3.org/1999/xlink" width="400" zoomAndPan="magnify" viewBox="0 0 300 187.499995" height="250" preserveAspectRatio="xMidYMid meet" version="1.0"><defs><clipPath id="9a9c38f288"><path d="M 113.320312 0 L 294.085938 0 L 294.085938 187 L 113.320312 187 Z M 113.320312 0 " clip-rule="nonzero"/></clipPath><clipPath id="413f5ed205"><path d="M 9.449219 0 L 159.675781 0 L 159.675781 187 L 9.449219 187 Z M 9.449219 0 " clip-rule="nonzero"/></clipPath></defs><g clip-path="url(#9a9c38f288)"><path fill="#6469ff" d="M 274.484375 104.550781 L 219.054688 87.796875 L 217.230469 96.210938 C 215.523438 104.113281 212.902344 110.070312 209.40625 113.921875 C 206.550781 117.058594 202.0625 118.605469 195.789062 118.648438 C 195.191406 114.714844 194.835938 109.832031 194.835938 103.675781 C 194.835938 89.304688 197.496094 82.316406 199.757812 78.980469 C 203.808594 72.90625 209.25 70.046875 216.914062 70.046875 C 216.992188 70.046875 217.070312 70.046875 217.152344 70.046875 L 217.863281 72.347656 L 237.71875 92.203125 L 293.742188 79.734375 L 290.964844 71.394531 C 286.238281 57.179688 279.25 45.867188 270.15625 37.527344 C 268.570312 36.058594 254.078125 19.699219 244.429688 12.871094 C 232.476562 4.410156 216.15625 0.125 195.949219 0.125 C 170.058594 0.125 149.609375 7.546875 135.117188 22.160156 C 120.664062 36.773438 113.320312 57.617188 113.320312 84.101562 C 113.320312 103.875 117.449219 120.472656 125.628906 133.457031 C 139.128906 154.898438 165.851562 176.617188 175.261719 180.945312 C 186.457031 186.066406 200.792969 188.6875 217.945312 188.6875 C 232.238281 188.6875 244.347656 186.503906 253.878906 182.257812 C 263.605469 177.886719 271.90625 171.335938 278.457031 162.800781 C 284.890625 154.421875 289.652344 143.941406 292.59375 131.671875 L 294.339844 124.402344 Z M 274.484375 104.550781 " fill-opacity="1" fill-rule="nonzero"/></g><path fill="#ffffff" d="M 224.972656 97.878906 L 264.996094 109.992188 C 262.296875 121.226562 258.085938 130.597656 252.289062 138.101562 C 246.492188 145.648438 239.347656 151.324219 230.769531 155.136719 C 222.191406 158.949219 211.3125 160.894531 198.050781 160.894531 C 182.011719 160.894531 168.867188 158.550781 158.703125 153.90625 C 148.539062 149.21875 139.722656 141.039062 132.339844 129.289062 C 124.953125 117.496094 121.261719 102.445312 121.261719 84.101562 C 121.261719 59.683594 127.773438 40.902344 140.753906 27.757812 C 153.78125 14.617188 172.164062 8.066406 195.949219 8.066406 C 214.570312 8.066406 229.179688 11.835938 239.863281 19.339844 C 250.503906 26.886719 258.445312 38.441406 263.605469 54.003906 L 223.304688 62.980469 C 221.875 58.492188 220.40625 55.195312 218.859375 53.09375 C 216.316406 49.597656 213.179688 46.898438 209.488281 45.03125 C 205.792969 43.164062 201.664062 42.210938 197.097656 42.210938 C 186.734375 42.210938 178.835938 46.382812 173.316406 54.679688 C 169.144531 60.875 167.082031 70.5625 167.082031 83.785156 C 167.082031 100.144531 169.582031 111.378906 174.546875 117.457031 C 179.507812 123.53125 186.496094 126.546875 195.511719 126.546875 C 204.246094 126.546875 210.835938 124.085938 215.324219 119.203125 C 219.730469 114.359375 222.949219 107.210938 224.972656 97.878906 Z M 224.972656 97.878906 " fill-opacity="1" fill-rule="nonzero"/><g clip-path="url(#413f5ed205)"><path fill="#6469ff" d="M 159.875 68.984375 L 159.875 20.761719 L 139.78125 0.667969 L 9.449219 0.667969 L 9.449219 166.320312 L 29.542969 186.414062 L 92.035156 186.414062 L 92.035156 125.289062 L 149.988281 125.289062 L 149.988281 79.03125 L 137.929688 68.984375 Z M 159.875 68.984375 " fill-opacity="1" fill-rule="nonzero"/></g><path fill="#ffffff" d="M 17.488281 8.703125 L 131.742188 8.703125 L 131.742188 40.855469 L 63.90625 40.855469 L 63.90625 66.976562 L 121.855469 66.976562 L 121.855469 97.15625 L 63.90625 97.15625 L 63.90625 158.285156 L 17.488281 158.285156 Z M 17.488281 8.703125 " fill-opacity="1" fill-rule="nonzero"/></svg>